<?xml version="1.0" encoding="UTF-8" standalone="no"?>
<!-- Created with Inkscape (http://www.inkscape.org/) -->
<svg xmlns:ooo="http://xml.openoffice.org/svg/export" xmlns:dc="http://purl.org/dc/elements/1.1/" xmlns:cc="http://creativecommons.org/ns#" xmlns:rdf="http://www.w3.org/1999/02/22-rdf-syntax-ns#" xmlns:svg="http://www.w3.org/2000/svg" xmlns="http://www.w3.org/2000/svg" xmlns:sodipodi="http://sodipodi.sourceforge.net/DTD/sodipodi-0.dtd" xmlns:inkscape="http://www.inkscape.org/namespaces/inkscape" width="110mm" height="98.900002mm" viewBox="0 0 110 98.900002" version="1.1" id="svg1442" inkscape:version="0.92.4 (5da689c313, 2019-01-14)" sodipodi:docname="3d_()_couleur_modifiee_b9dc0c_()_logo_texte_dessous.svg">
  <defs id="defs1436">
    <clipPath clipPathUnits="userSpaceOnUse" id="presentation_clip_path">
      <rect id="rect1444" height="29700" width="21000" y="0" x="0"/>
    </clipPath>
    <clipPath clipPathUnits="userSpaceOnUse" id="presentation_clip_path_shrink">
      <rect id="rect1447" height="29641" width="20958" y="29" x="21"/>
    </clipPath>
    <g id="g1452" ooo:id-list="id3 id4" ooo:slide="id1"/>
    <g transform="matrix(4.8828125e-4,0,0,-4.8828125e-4,0,0)" id="bullet-char-template-57356">
      <path id="path1456" d="M 580,1141 1163,571 580,0 -4,571 Z" inkscape:connector-curvature="0"/>
    </g>
    <g transform="matrix(4.8828125e-4,0,0,-4.8828125e-4,0,0)" id="bullet-char-template-57354">
      <path id="path1459" d="M 8,1128 H 1137 V 0 H 8 Z" inkscape:connector-curvature="0"/>
    </g>
    <g transform="matrix(4.8828125e-4,0,0,-4.8828125e-4,0,0)" id="bullet-char-template-10146">
      <path id="path1462" d="M 174,0 602,739 174,1481 1456,739 Z M 1358,739 309,1346 659,739 Z" inkscape:connector-curvature="0"/>
    </g>
    <g transform="matrix(4.8828125e-4,0,0,-4.8828125e-4,0,0)" id="bullet-char-template-10132">
      <path id="path1465" d="M 2015,739 1276,0 H 717 l 543,543 H 174 v 393 h 1086 l -543,545 h 557 z" inkscape:connector-curvature="0"/>
    </g>
    <g transform="matrix(4.8828125e-4,0,0,-4.8828125e-4,0,0)" id="bullet-char-template-10007">
      <path id="path1468" d="m 0,-2 c -7,16 -16,29 -25,39 l 381,530 c -94,256 -141,385 -141,387 0,25 13,38 40,38 9,0 21,-2 34,-5 21,4 42,12 65,25 l 27,-13 111,-251 280,301 64,-25 24,25 c 21,-10 41,-24 62,-43 C 886,937 835,863 770,784 769,783 710,716 594,584 L 774,223 c 0,-27 -21,-55 -63,-84 l 16,-20 C 717,90 699,76 672,76 641,76 570,178 457,381 L 164,-76 c -22,-34 -53,-51 -92,-51 -42,0 -63,17 -64,51 -7,9 -10,24 -10,44 0,9 1,19 2,30 z" inkscape:connector-curvature="0"/>
    </g>
    <g transform="matrix(4.8828125e-4,0,0,-4.8828125e-4,0,0)" id="bullet-char-template-10004">
      <path id="path1471" d="M 285,-33 C 182,-33 111,30 74,156 52,228 41,333 41,471 c 0,78 14,145 41,201 34,71 87,106 158,106 53,0 88,-31 106,-94 l 23,-176 c 8,-64 28,-97 59,-98 l 735,706 c 11,11 33,17 66,17 42,0 63,-15 63,-46 V 965 c 0,-36 -10,-64 -30,-84 L 442,47 C 390,-6 338,-33 285,-33 Z" inkscape:connector-curvature="0"/>
    </g>
    <g transform="matrix(4.8828125e-4,0,0,-4.8828125e-4,0,0)" id="bullet-char-template-9679">
      <path id="path1474" d="M 813,0 C 632,0 489,54 383,161 276,268 223,411 223,592 c 0,181 53,324 160,431 106,107 249,161 430,161 179,0 323,-54 432,-161 108,-107 162,-251 162,-431 0,-180 -54,-324 -162,-431 C 1136,54 992,0 813,0 Z" inkscape:connector-curvature="0"/>
    </g>
    <g transform="matrix(4.8828125e-4,0,0,-4.8828125e-4,0,0)" id="bullet-char-template-8226">
      <path id="path1477" d="m 346,457 c -73,0 -137,26 -191,78 -54,51 -81,114 -81,188 0,73 27,136 81,188 54,52 118,78 191,78 73,0 134,-26 185,-79 51,-51 77,-114 77,-187 0,-75 -25,-137 -76,-188 -50,-52 -112,-78 -186,-78 z" inkscape:connector-curvature="0"/>
    </g>
    <g transform="matrix(4.8828125e-4,0,0,-4.8828125e-4,0,0)" id="bullet-char-template-8211">
      <path id="path1480" d="M -4,459 H 1135 V 606 H -4 Z" inkscape:connector-curvature="0"/>
    </g>
    <g transform="matrix(4.8828125e-4,0,0,-4.8828125e-4,0,0)" id="bullet-char-template-61548">
      <path id="path1483" d="m 173,740 c 0,163 58,303 173,419 116,115 255,173 419,173 163,0 302,-58 418,-173 116,-116 174,-256 174,-419 0,-163 -58,-303 -174,-418 C 1067,206 928,148 765,148 601,148 462,206 346,322 231,437 173,577 173,740 Z" inkscape:connector-curvature="0"/>
    </g>
  </defs>
  <sodipodi:namedview id="base" pagecolor="#ffffff" bordercolor="#666666" borderopacity="1.0" inkscape:pageopacity="0.0" inkscape:pageshadow="2" inkscape:zoom="1.979899" inkscape:cx="178.91112" inkscape:cy="229.08849" inkscape:document-units="mm" inkscape:current-layer="layer1" showgrid="false" showguides="true" inkscape:guide-bbox="true" inkscape:window-width="1738" inkscape:window-height="1178" inkscape:window-x="-8" inkscape:window-y="-8" inkscape:window-maximized="1">
    <sodipodi:guide position="110.00001,29.190502" orientation="1,0" id="guide1567" inkscape:locked="false" inkscape:label="" inkscape:color="rgb(0,0,255)"/>
    <sodipodi:guide position="3.0030324e-06,97.876174" orientation="1,0" id="guide942" inkscape:locked="false" inkscape:label="" inkscape:color="rgb(0,0,255)"/>
    <sodipodi:guide position="3.2030324e-06,9.5806692e-06" orientation="0,1" id="guide944" inkscape:locked="false" inkscape:label="" inkscape:color="rgb(0,0,255)"/>
    <sodipodi:guide position="39.611406,98.900011" orientation="0,1" id="guide946" inkscape:locked="false" inkscape:label="" inkscape:color="rgb(0,0,255)"/>
  </sodipodi:namedview>
  <metadata id="metadata1439">
    <rdf:RDF>
      <cc:Work rdf:about="">
        <dc:format>image/svg+xml</dc:format>
        <dc:type rdf:resource="http://purl.org/dc/dcmitype/StillImage"/>
        <dc:title/>
      </cc:Work>
    </rdf:RDF>
  </metadata>
  <g inkscape:label="Calque 1" inkscape:groupmode="layer" id="layer1" transform="translate(64.009285,128.21837)">
    <rect id="rect1495" height="13.383602" width="75.023575" y="-47.701977" x="-59.009281" class="BoundingBox" style="fill:none;fill-rule:evenodd;stroke:none;stroke-width:0.66498595;stroke-linejoin:round"/>
    <rect id="rect1502" height="48.303493" width="75.000008" y="-101.00076" x="-59.009281" class="BoundingBox" style="fill:none;fill-rule:evenodd;stroke:none;stroke-width:0.66498595;stroke-linejoin:round"/>
    <g id="g940" transform="matrix(1.3337522,0,0,1.3337522,19.694476,11.461696)">
      <path style="fill:#000000;fill-rule:evenodd;stroke:none;stroke-width:0.66498595;stroke-linejoin:round" inkscape:connector-curvature="0" d="m -7.5955142,-43.814135 h -3.1573988 v -0.730443 c 0,-1.06032 0.730443,-1.272385 0.9425068,-1.272385 0.6361924,-0.09425 1.0603206,0.212065 1.0603206,0.212065 l -0.4241282,-1.767201 c 0,0 -0.4241282,-0.117814 -1.0603202,-0.117814 -1.366636,0 -2.827522,1.060321 -2.827522,3.25165 v 0.424128 h -1.366635 l 0.306314,1.602262 h 1.060321 v 7.563621 h 2.309143 v -7.563621 h 3.0395854 v 7.563621 h 2.426956 v -7.563621 h 2.5212068 v 7.563621 h 2.40339332 v -9.165883 H -5.2863716 v -0.730443 c 0,-1.06032 0.7304431,-1.272385 0.9425072,-1.272385 0.6361924,-0.09425 1.0603206,0.212065 1.0603206,0.212065 l -0.4241282,-1.767201 c 0,0 -0.4241283,-0.117814 -1.0603206,-0.117814 -1.3666355,0 -2.8275216,1.060321 -2.8275216,3.25165 z m -44.4392148,5.065976 c 0,-0.212064 -2.544769,-8.953818 -2.544769,-8.953818 h -3.157399 l -1.272385,13.147975 h 2.426956 l 0.730443,-9.165882 h 0.117814 l 2.521206,9.165882 h 2.332706 l 2.521206,-9.165882 h 0.117814 l 0.70688,9.165882 h 2.426956 l -1.154571,-13.147975 h -3.25165 c 0,0 -2.403393,8.741754 -2.521207,8.953818 z m 20.782284,2.733271 c -0.61263,0 -0.942507,-0.754005 -0.942507,-2.002828 v -4.194157 h 2.120641 l -0.424128,-1.602262 h -1.696513 v -2.097078 h -2.403394 v 2.097078 h -1.366635 l 0.329878,1.602262 h 1.036757 v 4.83035 c 0,2.002828 0.848257,3.039586 2.639021,3.039586 1.343072,0 2.28558,-0.636193 2.28558,-0.636193 l -0.400566,-1.460886 c 0,0 -0.541942,0.424128 -1.178134,0.424128 z m 37.0876584,-0.329877 c -1.4608862,0 -2.4033934,-1.248822 -2.4033934,-3.039586 0,-1.979265 1.2723847,-2.827522 2.4033934,-2.827522 0.8482564,0 1.5786995,0.400566 1.5786995,0.400566 L 6.895534,-43.908386 c 0,0 -0.6126297,-0.212064 -1.2488221,-0.212064 -3.0395857,0 -4.73609866,2.426956 -4.73609866,4.853912 0,1.672951 1.06032056,4.83035 4.61828526,4.83035 1.3666355,0 2.4269561,-0.848257 2.4269561,-0.848257 l -0.5419417,-1.578699 c 0,0 -0.6361923,0.518379 -1.5786995,0.518379 z M -20.83774,-47.607726 c -3.25165,0 -5.772857,2.756833 -5.772857,6.432611 0,4.005656 2.403393,6.833178 5.772857,6.833178 3.3459,0 5.772856,-2.827522 5.772856,-6.833178 0,-3.675778 -2.521207,-6.432611 -5.772856,-6.432611 z m 0,2.002828 c 2.309142,0 3.039585,2.426956 3.039585,4.429783 0,1.154572 -0.212064,4.736099 -3.039585,4.736099 -2.945335,0 -3.1574,-3.581527 -3.1574,-4.736099 0,-2.002827 0.848257,-4.429783 3.1574,-4.429783 z m -16.705941,2.521206 c -0.636192,-0.636192 -1.366635,-0.942507 -2.309142,-0.942507 -2.521207,0 -4.311971,1.908577 -4.311971,4.641848 0,2.945335 1.908577,5.042414 4.429784,5.042414 1.885015,0 3.345901,-1.154572 3.345901,-1.154572 l -0.730443,-1.460886 c 0,0 -0.942507,0.848257 -2.214892,0.848257 -0.61263,0 -1.154572,-0.329878 -1.5787,-0.659755 -0.424128,-0.518379 -0.612629,-1.131009 -0.612629,-1.979266 h 5.136664 c 0,0 0.329877,-2.827521 -1.154572,-4.335533 z m -2.309142,0.659755 c 0.329877,0 0.636192,0.09425 0.848256,0.306315 0.306315,0.306315 0.424129,0.848257 0.424129,1.5787 v 0.212064 h -2.945335 c 0,-0.730443 0.188501,-1.366636 0.518379,-1.67295 0.306314,-0.329878 0.636192,-0.424129 1.154571,-0.424129 z m 54.618292,-0.659755 c -0.61263,-0.636192 -1.343073,-0.942507 -2.309143,-0.942507 -2.4976436,0 -4.2884073,1.908577 -4.2884073,4.641848 0,2.945335 1.8850143,5.042414 4.4062213,5.042414 1.885014,0 3.369463,-1.154572 3.369463,-1.154572 l -0.730443,-1.460886 c 0,0 -0.96607,0.848257 -2.214892,0.848257 -0.636192,0 -1.154571,-0.329878 -1.578699,-0.659755 -0.424129,-0.518379 -0.636193,-1.131009 -0.636193,-1.979266 h 5.160227 c 0,0 0.306315,-2.827521 -1.178134,-4.335533 z m -2.309143,0.659755 c 0.329878,0 0.636193,0.09425 0.848257,0.306315 0.329877,0.306315 0.424128,0.848257 0.424128,1.5787 v 0.212064 h -2.945335 c 0,-0.730443 0.212064,-1.366636 0.541942,-1.67295 0.306315,-0.329878 0.612629,-0.424129 1.131008,-0.424129 z" id="path1497"/>
      <path style="fill:#b9dc0c;fill-opacity:1;fill-rule:evenodd;stroke:none;stroke-width:0.66498595;stroke-linejoin:round" inkscape:connector-curvature="0" d="m -16.17233,-63.017719 c -10.084827,2.262017 -19.321397,-6.479737 -31.573991,-5.160227 -4.005656,0.400566 -7.728559,2.28558 -11.239398,4.665411 v 10.768144 c 2.945335,-3.322337 9.048069,-8.953818 18.190389,-9.707824 12.252593,-1.06032 21.489164,7.516495 31.6446789,5.136665 8.0819992,-1.814327 15.0329898,-11.027335 25.1178171,-11.616402 V -73.5738 c -14.1847336,-4.853912 -22.2431702,8.364752 -32.139496,10.556081 z m -3.911405,-3.345901 c 10.2733288,-2.28558 18.6380802,-16.541001 33.953822,-9.802074 0.659755,0.400565 1.343073,0.589067 2.097079,0.871819 v -3.322338 c -3.039586,-0.494816 -6.0791717,-1.248822 -9.0480694,-2.568332 -15.315742,-6.85674 -23.6804936,7.516495 -33.9302596,9.684261 -10.084827,2.379831 -19.321397,-6.361923 -31.503303,-5.018851 h -0.471253 v 7.304431 c 2.262017,-1.131008 4.736098,-2.002828 7.445807,-2.28558 12.158342,-1.31951 21.37135,7.422244 31.456177,5.136664 z m -10.838832,-9.024506 c 10.273328,-2.28558 18.543829,-16.541001 33.8595707,-9.707824 4.2884078,1.908577 8.7417543,2.662583 13.0301623,2.945335 v -5.325166 c -6.0084836,0.589067 -13.2186637,0.282752 -19.9811529,-2.733271 -15.2921791,-6.762489 -23.5626801,7.492933 -33.8360081,9.778512 -7.045242,1.625825 -13.689917,-2.191329 -21.135724,-4.170594 v 3.982093 c 10.46183,0.377003 18.944394,7.327994 28.063152,5.230915 z m -13.124413,-9.024506 c -5.042414,1.131008 -9.919888,-0.377003 -14.938739,-2.097079 v -3.039586 c 2.544769,0.565505 5.207352,0.659755 7.893497,0.09425 10.391142,-2.28558 18.661643,-16.564563 33.953822,-9.707824 14.4674859,6.361923 31.008487,0.565504 33.105566,-0.188502 v 7.045242 c -6.6682387,1.413761 -16.84731644,2.28558 -26.154575,-1.814327 -15.315742,-6.833172 -23.586243,7.422245 -33.859571,9.707826 z" id="path1504"/>
    </g>
  </g>
</svg>